<svg width="24" height="25" viewBox="0 0 24 25" fill="none" xmlns="http://www.w3.org/2000/svg">
<path d="M10.0607 11.6143C9.45 11.6143 8.96786 12.15 8.96786 12.8036C8.96786 13.4571 9.46072 13.9929 10.0607 13.9929C10.6714 13.9929 11.1536 13.4571 11.1536 12.8036C11.1643 12.15 10.6714 11.6143 10.0607 11.6143ZM13.9714 11.6143C13.3607 11.6143 12.8786 12.15 12.8786 12.8036C12.8786 13.4571 13.3714 13.9929 13.9714 13.9929C14.5821 13.9929 15.0643 13.4571 15.0643 12.8036C15.0643 12.15 14.5821 11.6143 13.9714 11.6143Z" fill="white"/>
<path d="M19.1786 2.625H4.82143C3.61071 2.625 2.625 3.61071 2.625 4.83214V19.3179C2.625 20.5393 3.61071 21.525 4.82143 21.525H16.9714L16.4036 19.5429L17.775 20.8179L19.0714 22.0179L21.375 24.0536V4.83214C21.375 3.61071 20.3893 2.625 19.1786 2.625ZM15.0429 16.6179C15.0429 16.6179 14.6571 16.1571 14.3357 15.75C15.7393 15.3536 16.275 14.475 16.275 14.475C15.8357 14.7643 15.4179 14.9679 15.0429 15.1071C14.5071 15.3321 13.9929 15.4821 13.4893 15.5679C12.4607 15.7607 11.5179 15.7071 10.7143 15.5571C10.1036 15.4393 9.57857 15.2679 9.13929 15.0964C8.89286 15 8.625 14.8821 8.35714 14.7321C8.325 14.7107 8.29286 14.7 8.26071 14.6786C8.23929 14.6679 8.22857 14.6571 8.21786 14.6464C8.025 14.5393 7.91786 14.4643 7.91786 14.4643C7.91786 14.4643 8.43214 15.3214 9.79286 15.7286C9.47143 16.1357 9.075 16.6179 9.075 16.6179C6.70714 16.5429 5.80714 14.9893 5.80714 14.9893C5.80714 11.5393 7.35 8.74286 7.35 8.74286C8.89286 7.58571 10.3607 7.61786 10.3607 7.61786L10.4679 7.74643C8.53929 8.30357 7.65 9.15 7.65 9.15C7.65 9.15 7.88571 9.02143 8.28214 8.83929C9.42857 8.33571 10.3393 8.19643 10.7143 8.16429C10.7786 8.15357 10.8321 8.14286 10.8964 8.14286C11.55 8.05714 12.2893 8.03571 13.0607 8.12143C14.0786 8.23929 15.1714 8.53929 16.2857 9.15C16.2857 9.15 15.4393 8.34643 13.6179 7.78929L13.7679 7.61786C13.7679 7.61786 15.2357 7.58571 16.7786 8.74286C16.7786 8.74286 18.3214 11.5393 18.3214 14.9893C18.3214 14.9893 17.4107 16.5429 15.0429 16.6179Z" fill="white"/>
</svg>
