<svg width="147" height="40" viewBox="0 0 147 40" fill="none" xmlns="http://www.w3.org/2000/svg">
<g clip-path="url(#clip0_447_5463)">
<path fill-rule="evenodd" clip-rule="evenodd" d="M47.6763 0.144531H53.7186C54.4804 0.144531 55.3167 0.179559 56.2274 0.249615C57.1511 0.322968 58.0653 0.486629 58.957 0.738253C59.8836 1.00636 60.768 1.40343 61.5841 1.91781C62.4707 2.48171 63.2368 3.21566 63.8381 4.07728C64.5537 5.11787 65.0868 6.27281 65.4144 7.49249C65.8428 9.12073 66.0426 10.8006 66.0081 12.484V13.8842C66.0381 15.7234 65.8539 17.5598 65.459 19.3564C65.1624 20.6958 64.6712 21.9845 64.001 23.1814C63.4657 24.1365 62.7522 24.9802 61.8993 25.6667C61.1455 26.2639 60.3035 26.7407 59.4036 27.08C58.5561 27.3941 57.6742 27.6057 56.7765 27.7105C55.9516 27.8071 55.1218 27.8571 54.2913 27.8603H53.7081V39.9948H47.6658L47.6763 0.144531ZM54.0233 23.4336C54.9646 23.46 55.9017 23.2974 56.7791 22.9555C57.5107 22.6482 58.1324 22.1272 58.5629 21.4607C59.0543 20.6579 59.3795 19.7645 59.5192 18.8336C59.7298 17.5654 59.8274 16.2809 59.8108 14.9954V11.4147C59.8219 10.3859 59.734 9.3583 59.5481 8.34629C59.4146 7.57126 59.0985 6.83914 58.626 6.21047C58.159 5.6355 57.5401 5.20314 56.8396 4.96261C55.9284 4.66633 54.9732 4.5286 54.0154 4.55541H53.7133V23.4336H54.0233ZM70.5923 0.144531H76.6346V35.2398H84.8706V40H70.5923V0.144531ZM100.042 0.144531H93.0881L85.7375 40H91.8743L92.9252 32.8596H100.205L101.303 40H107.416L100.042 0.144531ZM96.7055 8.45137L99.506 28.3095H93.6187L96.4428 8.45137H96.7055ZM114.953 4.90481H108.535V0.144531H127.39V4.90481H120.996V40H114.953V4.90481ZM146.247 0.144531H131.475V40.0105H146.478V35.2503H137.517V21.5894H144.264V16.8291H137.517V4.90481H146.247V0.144531Z" fill="white"/>
<path fill-rule="evenodd" clip-rule="evenodd" d="M39.9317 19.9658C39.9317 30.9927 30.9927 39.9317 19.9658 39.9317C8.93902 39.9317 0 30.9927 0 19.9658C0 8.93902 8.93902 0 19.9658 0C30.9927 0 39.9317 8.93902 39.9317 19.9658ZM32.8386 19.9658C32.8386 27.0753 27.0753 32.8386 19.9659 32.8386C12.8564 32.8386 7.09313 27.0753 7.09313 19.9658C7.09313 12.8564 12.8564 7.09313 19.9659 7.09313C27.0753 7.09313 32.8386 12.8564 32.8386 19.9658Z" fill="white"/>
<path fill-rule="evenodd" clip-rule="evenodd" d="M26.9319 24.1453C27.7014 24.9148 27.7014 26.1623 26.9319 26.9318C23.0847 30.779 16.847 30.779 12.9997 26.9318C12.2303 26.1623 12.2303 24.9148 12.9997 24.1453C13.7692 23.3759 15.0167 23.3759 15.7862 24.1453C18.0945 26.4537 21.8371 26.4537 24.1455 24.1453C24.9149 23.3759 26.1625 23.3759 26.9319 24.1453Z" fill="url(#paint0_linear_447_5463)"/>
</g>
<defs>
<linearGradient id="paint0_linear_447_5463" x1="16.9009" y1="22.4776" x2="23.0267" y2="28.6035" gradientUnits="userSpaceOnUse">
<stop stop-color="#0BDEFF"/>
<stop offset="1" stop-color="#FDD32B"/>
</linearGradient>
<clipPath id="clip0_447_5463">
<rect width="146.478" height="40" fill="white"/>
</clipPath>
</defs>
</svg>
