<svg width="24" height="24" viewBox="0 0 24 24" fill="none" xmlns="http://www.w3.org/2000/svg">
<path d="M2.27669 11.6089C8.02887 9.10277 11.8646 7.45058 13.7837 6.65232C19.2634 4.37313 20.4021 3.97721 21.1442 3.96399C21.3074 3.96126 21.6724 4.00171 21.9088 4.19354C22.1084 4.35552 22.1634 4.57433 22.1896 4.7279C22.2159 4.88147 22.2486 5.23131 22.2226 5.50467C21.9257 8.62471 20.6408 16.1962 19.9871 19.6907C19.7105 21.1694 19.1659 21.6652 18.6387 21.7137C17.4928 21.8191 16.6227 20.9564 15.5129 20.2289C13.7762 19.0905 12.7951 18.3819 11.1094 17.271C9.1613 15.9872 10.4242 15.2816 11.5344 14.1285C11.825 13.8267 16.8736 9.23457 16.9714 8.81799C16.9836 8.76589 16.9949 8.57169 16.8795 8.46914C16.7642 8.36659 16.5939 8.40166 16.471 8.42955C16.2968 8.46908 13.5225 10.3028 8.14808 13.9307C7.36061 14.4714 6.64733 14.7349 6.00827 14.7211C5.30374 14.7059 3.94853 14.3227 2.94106 13.9953C1.70537 13.5936 0.723261 13.3812 0.80878 12.699C0.853324 12.3437 1.34263 11.9803 2.27669 11.6089Z" fill="white"/>
</svg>
